M48
; DRILL file {KiCad 9.0.4-1.fc42} date 2025-09-30T21:00:57+0300
; FORMAT={-:-/ absolute / metric / decimal}
; #@! TF.CreationDate,2025-09-30T21:00:57+03:00
; #@! TF.GenerationSoftware,Kicad,Pcbnew,9.0.4-1.fc42
; #@! TF.FileFunction,Plated,1,2,PTH
FMAT,2
METRIC
; #@! TA.AperFunction,Plated,PTH,ViaDrill
T1C0.300
; #@! TA.AperFunction,Plated,PTH,ComponentDrill
T2C0.950
; #@! TA.AperFunction,Plated,PTH,ComponentDrill
T3C0.990
; #@! TA.AperFunction,Plated,PTH,ComponentDrill
T4C1.000
; #@! TA.AperFunction,Plated,PTH,ComponentDrill
T5C1.300
; #@! TA.AperFunction,Plated,PTH,ComponentDrill
T6C2.300
%
G90
G05
T1
X28.45Y-29.427
X28.603Y-51.881
X28.603Y-52.694
X28.679Y-39.13
X28.704Y-42.077
X29.72Y-56.174
X29.746Y-50.027
X29.746Y-51.551
X29.949Y-47.461
X30.051Y-44.185
X30.609Y-51.881
X30.609Y-52.719
X30.609Y-58.358
X31.016Y-59.857
X31.524Y-23.738
X31.524Y-51.475
X31.854Y-57.469
X31.981Y-46.953
X32.819Y-53.253
X32.845Y-36.26
X33.632Y-42.737
X33.734Y-23.738
X33.886Y-45.175
X34.496Y-60.263
X34.673Y-26.075
X34.927Y-41.086
X34.978Y-58.942
X35.054Y-53.354
X35.131Y-48.096
X35.613Y-57.977
X35.994Y-50.89
X36.705Y-40.908
X36.705Y-41.543
X36.832Y-50.357
X36.985Y-61.355
X37.086Y-53.43
X37.213Y-56.529
X38.068Y-39.082
X38.331Y-59.882
X38.61Y-29.25
X39.22Y-67.223
X39.423Y-53.1
X39.652Y-27.726
X39.906Y-58.942
X40.82Y-52.846
X40.82Y-53.507
X41.1Y-57.317
X41.506Y-20.436
X41.531Y-47.995
X41.582Y-27.319
X41.862Y-34.736
X41.912Y-37.073
X41.938Y-53.1
X42.928Y-52.516
X42.979Y-49.112
X43.843Y-27.624
X44.071Y-61.66
X44.224Y-46.395
X44.351Y-65.47
X44.554Y-32.348
X44.63Y-59.349
X44.96Y-49.392
X45.519Y-27.319
X45.545Y-50.967
X45.773Y-20.461
X45.799Y-42.661
X46.205Y-51.62
X46.611Y-57.139
X46.649Y-50.674
X46.916Y-66.74
X46.992Y-52.389
X47.526Y-38.19
X47.551Y-45.887
X47.577Y-42.483
X47.903Y-27.823
X48.034Y-58.155
X48.237Y-68.467
X48.339Y-35.015
X48.847Y-55.996
X49.609Y-45.887
X49.812Y-62.828
X50.472Y-59.628
X51.234Y-45.328
X52.301Y-22.112
X52.53Y-38.165
X52.936Y-45.404
X53.038Y-67.197
X53.088Y-65.521
X53.393Y-57.494
X53.673Y-42.737
X53.8Y-49.163
X54.562Y-62.854
X54.739Y-59.044
X55.25Y-39.25
X55.578Y-53.405
X55.781Y-45.328
X55.933Y-30.672
X57.356Y-50.611
X57.686Y-59.526
X58.575Y-62.828
X59.25Y-37.75
X59.438Y-52.973
X59.438Y-53.608
X59.438Y-68.188
X59.489Y-57.875
X59.565Y-55.716
X59.565Y-56.529
X59.642Y-64.149
X60.35Y-39.25
X60.492Y-49.227
X60.632Y-41.188
X60.683Y-52.516
X61.115Y-55.056
X61.191Y-54.243
X61.191Y-55.97
X61.42Y-30.647
X61.725Y-52.617
X61.978Y-47.106
X62.258Y-58.206
X62.817Y-47.131
X63.121Y-54.269
X63.198Y-56.529
X63.274Y-58.129
X63.502Y-53.049
X63.629Y-66.461
X63.833Y-41.721
X63.934Y-48.579
X64.01Y-56.377
X64.315Y-53.024
X64.518Y-22.087
X64.62Y-47.131
X64.62Y-66.13
X64.747Y-56.834
X65.077Y-38.571
X65.103Y-40.527
X65.636Y-47.284
X66.144Y-65.622
X66.169Y-59.374
X66.22Y-43.677
X67.058Y-61.838
X67.719Y-56.021
X67.947Y-56.986
X68.481Y-39.537
X69.268Y-42.178
X70.183Y-42.254
X70.284Y-55.107
X70.411Y-47.741
X70.792Y-50.255
X70.818Y-51.83
X70.894Y-61.127
X70.894Y-63.743
X71.122Y-31.713
X71.376Y-66.41
X71.402Y-53.862
X71.58Y-56.682
X72.037Y-27.472
X72.265Y-21.045
X72.418Y-55.92
T2
X57.49Y-32.157
X57.49Y-34.157
X59.99Y-32.157
X59.99Y-34.157
T3
X30.366Y-21.25
X34.866Y-21.25
T4
X30.33Y-63.25
X30.33Y-65.79
X32.87Y-63.25
X32.87Y-65.79
X35.41Y-63.25
X35.41Y-65.79
X37.95Y-63.25
X37.95Y-65.79
X40.49Y-63.25
X40.49Y-65.79
X71.199Y-35.892
X71.199Y-38.432
X71.199Y-40.972
X71.199Y-43.512
X71.199Y-46.052
T5
X29.116Y-23.74
X36.126Y-23.74
T6
X52.74Y-29.297
X64.74Y-29.297
M30
